<svg width="19" height="18" viewBox="0 0 19 18" fill="none" xmlns="http://www.w3.org/2000/svg">
<path d="M14.25 17.042H4.75001C4.12036 17.0412 3.51673 16.7907 3.0715 16.3455C2.62628 15.9003 2.3758 15.2966 2.37501 14.667V6.578L1.25701 7.391C1.12212 7.48984 0.95923 7.54309 0.792007 7.543C0.624644 7.54318 0.461528 7.49033 0.326065 7.39204C0.190602 7.29376 0.0897566 7.15509 0.0379995 6.99593C-0.0137575 6.83677 -0.0137653 6.66531 0.0379772 6.50614C0.0897198 6.34698 0.190553 6.2083 0.326007 6.11L8.10001 0.455C8.50602 0.159878 8.99507 0.000917435 9.49701 0.000917435C9.99895 0.000917435 10.488 0.159878 10.894 0.455L18.673 6.11C18.7572 6.17106 18.8285 6.24813 18.8829 6.3368C18.9373 6.42546 18.9736 6.52397 18.9899 6.62671C19.0061 6.72944 19.002 6.83436 18.9776 6.93548C18.9533 7.0366 18.9092 7.13193 18.848 7.216C18.774 7.3166 18.6775 7.39848 18.5662 7.45509C18.4549 7.51169 18.3319 7.54146 18.207 7.542C18.0398 7.5423 17.8768 7.48903 17.742 7.39L16.624 6.577V14.665C16.6237 15.2948 16.3736 15.8988 15.9286 16.3444C15.4835 16.7901 14.8798 17.0409 14.25 17.042ZM8.70801 8.334H10.291C10.9206 8.33453 11.5242 8.58478 11.9694 9.02985C12.4147 9.47492 12.6652 10.0784 12.666 10.708V15.458H14.25C14.46 15.4577 14.6613 15.3742 14.8097 15.2257C14.9582 15.0773 15.0417 14.876 15.042 14.666V5.427L9.96601 1.734C9.83055 1.63562 9.66742 1.58263 9.50001 1.58263C9.33259 1.58263 9.16947 1.63562 9.03401 1.734L3.95801 5.427V14.666C3.95827 14.876 4.0418 15.0773 4.19027 15.2257C4.33874 15.3742 4.54004 15.4577 4.75001 15.458H6.33301V10.708C6.3338 10.0784 6.58431 9.47492 7.02957 9.02985C7.47482 8.58478 8.07845 8.33453 8.70801 8.334ZM8.70801 9.917C8.49813 9.917 8.29683 10.0003 8.14833 10.1486C7.99983 10.2969 7.91627 10.4981 7.91601 10.708V15.458H11.083V10.708C11.0827 10.4981 10.9992 10.2969 10.8507 10.1486C10.7022 10.0003 10.5009 9.917 10.291 9.917H8.70801Z" fill="black"/>
</svg>
