<svg width="18" height="18" viewBox="0 0 18 18" fill="none" xmlns="http://www.w3.org/2000/svg">
<path d="M1.626 18C1.35561 17.9982 1.08992 17.9292 0.852851 17.7991C0.615787 17.6691 0.414801 17.4821 0.267998 17.255C0.11944 17.0313 0.0295735 16.7738 0.00668005 16.5063C-0.0162134 16.2387 0.0286023 15.9697 0.136998 15.724L1.188 13.271C0.151151 11.3817 -0.169317 9.18174 0.285441 7.07515C0.740198 4.96855 1.93965 3.09671 3.66355 1.80337C5.38745 0.510025 7.52006 -0.118007 9.66977 0.0345989C11.8195 0.187205 13.842 1.1102 15.3659 2.63411C16.8898 4.15801 17.8128 6.18052 17.9654 8.33023C18.118 10.4799 17.49 12.6126 16.1966 14.3364C14.9033 16.0603 13.0315 17.2598 10.9249 17.7146C8.81826 18.1693 6.61831 17.8488 4.729 16.812L2.276 17.863C2.07092 17.9524 1.84973 17.9991 1.626 18ZM9.041 1.629C7.73816 1.62953 6.459 1.97725 5.33518 2.63636C4.21137 3.29547 3.2835 4.24216 2.6471 5.37899C2.0107 6.51582 1.68875 7.80171 1.71439 9.10429C1.74003 10.4069 2.11234 11.6791 2.793 12.79L3.013 13.149L1.634 16.366L4.851 14.987L5.211 15.207C6.1764 15.7986 7.26575 16.1585 8.39359 16.2584C9.52142 16.3583 10.6571 16.1956 11.7115 15.7829C12.7658 15.3703 13.7103 14.7189 14.4707 13.88C15.2311 13.0411 15.7868 12.0374 16.0941 10.9477C16.4015 9.85795 16.4522 8.71182 16.2423 7.5992C16.0324 6.48657 15.5675 5.43772 14.8842 4.5349C14.2009 3.63209 13.3177 2.89988 12.3039 2.3957C11.2901 1.89152 10.1733 1.6291 9.041 1.629ZM12.3 11.4H5.784C5.57292 11.3926 5.37295 11.3036 5.22624 11.1516C5.07954 10.9997 4.99754 10.7967 4.99754 10.5855C4.99754 10.3743 5.07954 10.1713 5.22624 10.0194C5.37295 9.86745 5.57292 9.7784 5.784 9.771H12.3C12.4094 9.76717 12.5184 9.7854 12.6205 9.82461C12.7227 9.86381 12.8159 9.92319 12.8947 9.9992C12.9734 10.0752 13.036 10.1663 13.0787 10.267C13.1215 10.3678 13.1435 10.4761 13.1435 10.5855C13.1435 10.6949 13.1215 10.8032 13.0787 10.904C13.036 11.0047 12.9734 11.0958 12.8947 11.1718C12.8159 11.2478 12.7227 11.3072 12.6205 11.3464C12.5184 11.3856 12.4094 11.4038 12.3 11.4ZM8.228 8.144H5.784C5.57292 8.1366 5.37295 8.04755 5.22624 7.89561C5.07954 7.74367 4.99754 7.54071 4.99754 7.3295C4.99754 7.11829 5.07954 6.91533 5.22624 6.76339C5.37295 6.61145 5.57292 6.5224 5.784 6.515H8.228C8.43908 6.5224 8.63904 6.61145 8.78575 6.76339C8.93246 6.91533 9.01445 7.11829 9.01445 7.3295C9.01445 7.54071 8.93246 7.74367 8.78575 7.89561C8.63904 8.04755 8.43908 8.1366 8.228 8.144Z" fill="black"/>
</svg>
