<svg width="17" height="18" viewBox="0 0 17 18" fill="none" xmlns="http://www.w3.org/2000/svg">
<path d="M8.307 18C8.08 18 7.855 17.992 7.639 17.975C7.16375 17.9311 6.71783 17.7259 6.3753 17.3936C6.03276 17.0612 5.81423 16.6217 5.756 16.148L5.685 15.657C5.65044 15.5035 5.58119 15.36 5.48256 15.2375C5.38393 15.1149 5.25853 15.0166 5.116 14.95C4.992 14.883 4.869 14.812 4.751 14.738C4.56881 14.6194 4.35731 14.5536 4.14 14.548C4.04222 14.5469 3.94513 14.5645 3.854 14.6L3.392 14.784C3.12779 14.8887 2.8462 14.9427 2.562 14.943C2.22982 14.9485 1.90144 14.8716 1.6062 14.7193C1.31096 14.567 1.05803 14.3439 0.869998 14.07C0.61816 13.6998 0.394209 13.3114 0.199998 12.908C0.000655651 12.4746 -0.0442585 11.986 0.0727293 11.5235C0.189717 11.061 0.461552 10.6525 0.842998 10.366L1.234 10.056C1.34984 9.94993 1.43975 9.81866 1.49679 9.67232C1.55384 9.52598 1.57649 9.36848 1.563 9.212C1.563 9.149 1.563 9.079 1.563 9C1.563 8.921 1.563 8.851 1.563 8.788C1.57649 8.63152 1.55384 8.47402 1.49679 8.32768C1.43975 8.18134 1.34984 8.05007 1.234 7.944L0.842998 7.634C0.461701 7.34738 0.189981 6.93889 0.0730052 6.47645C-0.0439707 6.014 0.000843182 5.52545 0.199998 5.092C0.394041 4.6885 0.617999 4.30008 0.869998 3.93C1.05803 3.6561 1.31096 3.43303 1.6062 3.2807C1.90144 3.12836 2.22982 3.05151 2.562 3.057C2.8462 3.05734 3.12779 3.11128 3.392 3.216L3.854 3.4C3.94513 3.43545 4.04222 3.4531 4.14 3.452C4.35731 3.44636 4.56881 3.38059 4.751 3.262C4.869 3.188 4.992 3.116 5.116 3.05C5.25862 2.98356 5.38409 2.88526 5.48274 2.76269C5.58139 2.64011 5.65058 2.49653 5.685 2.343L5.756 1.853C5.81416 1.37908 6.03262 0.939287 6.37512 0.606606C6.71762 0.273924 7.16358 0.0683519 7.639 0.024C7.859 0.008 8.083 0 8.307 0C8.531 0 8.756 0.008 8.976 0.024C9.45121 0.0681685 9.89702 0.273575 10.2394 0.606104C10.5817 0.938633 10.8 1.37827 10.858 1.852L10.93 2.342C10.964 2.49558 11.0329 2.63926 11.1314 2.76188C11.2299 2.8845 11.3553 2.98275 11.498 3.049C11.617 3.112 11.737 3.182 11.864 3.261C12.0462 3.37959 12.2577 3.44536 12.475 3.451C12.5731 3.45216 12.6705 3.43451 12.762 3.399L13.223 3.215C13.4872 3.11035 13.7688 3.05641 14.053 3.056C14.3852 3.0506 14.7135 3.12749 15.0087 3.27982C15.304 3.43214 15.5569 3.65517 15.745 3.929C15.9977 4.29902 16.2223 4.68744 16.417 5.091C16.6162 5.52445 16.661 6.013 16.544 6.47545C16.427 6.93789 16.1553 7.34638 15.774 7.633L15.382 7.943C15.2662 8.04907 15.1764 8.18037 15.1195 8.32673C15.0627 8.47309 15.0402 8.63058 15.054 8.787C15.054 8.857 15.054 8.928 15.054 8.999C15.054 9.07 15.054 9.141 15.054 9.211C15.0402 9.36742 15.0627 9.52491 15.1195 9.67127C15.1764 9.81763 15.2662 9.94893 15.382 10.055L15.774 10.365C16.1554 10.6515 16.4273 11.06 16.5443 11.5225C16.6613 11.985 16.6163 12.4736 16.417 12.907C16.2221 13.3105 15.9975 13.6989 15.745 14.069C15.5569 14.3428 15.304 14.5659 15.0087 14.7182C14.7135 14.8705 14.3852 14.9474 14.053 14.942C13.7688 14.9416 13.4872 14.8876 13.223 14.783L12.762 14.599C12.6705 14.5635 12.5731 14.5458 12.475 14.547C12.2577 14.5526 12.0462 14.6184 11.864 14.737C11.736 14.817 11.617 14.886 11.498 14.949C11.3555 15.0154 11.2301 15.1137 11.1316 15.2363C11.0332 15.3589 10.9642 15.5025 10.93 15.656L10.858 16.147C10.8002 16.6207 10.5819 17.0603 10.2395 17.3927C9.89708 17.7251 9.45119 17.9302 8.976 17.974C8.76 17.992 8.535 18 8.307 18ZM4.134 13.046C4.6328 13.0535 5.11992 13.1981 5.542 13.464C5.655 13.533 5.742 13.584 5.826 13.628C6.17681 13.8034 6.48127 14.059 6.71464 14.3742C6.948 14.6894 7.10368 15.0553 7.169 15.442L7.24 15.932C7.25021 16.0673 7.30601 16.1952 7.39828 16.2947C7.49054 16.3943 7.61383 16.4596 7.748 16.48C7.928 16.493 8.116 16.5 8.307 16.5C8.498 16.5 8.686 16.493 8.866 16.48C9.00017 16.4596 9.12345 16.3943 9.21572 16.2947C9.30799 16.1952 9.36378 16.0673 9.374 15.932L9.445 15.442C9.5105 15.0552 9.66635 14.6893 9.89989 14.3741C10.1334 14.0589 10.4381 13.8033 10.789 13.628C10.88 13.579 10.969 13.528 11.074 13.464C11.4957 13.198 11.9825 13.0534 12.481 13.046C12.7673 13.0452 13.051 13.0991 13.317 13.205L13.778 13.389C13.865 13.4246 13.958 13.4433 14.052 13.444C14.14 13.4469 14.2273 13.4284 14.3066 13.39C14.3858 13.3517 14.4546 13.2947 14.507 13.224C14.7172 12.9157 14.904 12.5921 15.066 12.256C15.1166 12.1302 15.1223 11.9909 15.0822 11.8614C15.0422 11.732 14.9588 11.6202 14.846 11.545L14.454 11.234C14.1514 10.9848 13.9121 10.6675 13.7557 10.3081C13.5992 9.94864 13.5301 9.55727 13.554 9.166V9V8.834C13.5302 8.44259 13.5993 8.0511 13.7558 7.69152C13.9122 7.33193 14.1514 7.01445 14.454 6.765L14.846 6.455C14.9588 6.37962 15.0423 6.2677 15.0824 6.13804C15.1224 6.00839 15.1166 5.8689 15.066 5.743C14.904 5.40686 14.7172 5.08329 14.507 4.775C14.4546 4.70399 14.3857 4.64678 14.3062 4.60828C14.2268 4.56978 14.1392 4.55116 14.051 4.554C13.9573 4.55479 13.8647 4.57346 13.778 4.609L13.317 4.794C13.0507 4.8998 12.7666 4.95376 12.48 4.953C11.9818 4.94577 11.4952 4.80112 11.074 4.535C10.984 4.481 10.887 4.424 10.789 4.37C10.4381 4.19516 10.1335 3.9399 9.89991 3.62502C9.66636 3.31014 9.51049 2.94454 9.445 2.558L9.374 2.068C9.36481 1.93242 9.30935 1.80411 9.21687 1.70453C9.1244 1.60496 9.00053 1.54017 8.866 1.521C8.686 1.508 8.498 1.501 8.307 1.501C8.116 1.501 7.928 1.508 7.748 1.521C7.61347 1.54017 7.4896 1.60496 7.39712 1.70453C7.30465 1.80411 7.24918 1.93242 7.24 2.068L7.169 2.558C7.10394 2.94455 6.94847 3.31026 6.71526 3.62532C6.48205 3.94038 6.17769 4.19588 5.827 4.371C5.742 4.416 5.652 4.471 5.543 4.536C5.12136 4.80206 4.63451 4.94669 4.136 4.954C3.8497 4.95422 3.56598 4.89992 3.3 4.794L2.84 4.609C2.75331 4.57353 2.66066 4.55487 2.567 4.554C2.47876 4.55107 2.39114 4.56966 2.31169 4.60816C2.23225 4.64667 2.16337 4.70393 2.111 4.775C1.9005 5.08328 1.71331 5.40685 1.551 5.743C1.50092 5.86897 1.49544 6.00828 1.53546 6.13779C1.57547 6.26731 1.65859 6.37924 1.771 6.455L2.163 6.765C2.46568 7.01434 2.70504 7.33181 2.86146 7.69142C3.01789 8.05103 3.08695 8.44257 3.063 8.834V9V9.166C3.08704 9.55729 3.01801 9.94871 2.86157 10.3082C2.70513 10.6676 2.46573 10.9849 2.163 11.234L1.771 11.545C1.65853 11.6205 1.57533 11.7322 1.53529 11.8616C1.49526 11.991 1.5008 12.1302 1.551 12.256C1.71315 12.5922 1.90034 12.9158 2.111 13.224C2.16332 13.2948 2.23208 13.3518 2.31134 13.3902C2.39061 13.4285 2.478 13.447 2.566 13.444C2.65999 13.4432 2.75298 13.4245 2.84 13.389L3.3 13.205C3.56537 13.0995 3.84842 13.0455 4.134 13.046ZM8.307 12.746C7.56515 12.746 6.83996 12.526 6.22319 12.1137C5.60642 11.7015 5.12578 11.1156 4.84207 10.4301C4.55836 9.74468 4.48433 8.99048 4.62935 8.26294C4.77437 7.5354 5.13192 6.86722 5.65676 6.34294C6.18161 5.81865 6.85017 5.46181 7.57786 5.31757C8.30556 5.17333 9.05968 5.24816 9.74483 5.5326C10.43 5.81704 11.0154 6.29831 11.427 6.91552C11.8385 7.53273 12.0578 8.25815 12.057 9C12.0559 9.99424 11.6605 10.9474 10.9575 11.6505C10.2544 12.3535 9.30124 12.7489 8.307 12.75V12.746ZM8.307 6.746C7.86216 6.746 7.4273 6.87786 7.05738 7.12492C6.68746 7.37197 6.39907 7.72314 6.22865 8.13404C6.05824 8.54494 6.01345 8.99714 6.09994 9.43348C6.18644 9.86983 6.40033 10.2708 6.7146 10.5856C7.02887 10.9004 7.4294 11.115 7.8656 11.2023C8.30179 11.2895 8.75407 11.2456 9.16527 11.0759C9.57647 10.9062 9.92815 10.6184 10.1759 10.2489C10.4236 9.87946 10.5562 9.44484 10.557 9C10.5562 8.40351 10.3189 7.83167 9.89711 7.40989C9.47533 6.9881 8.90349 6.75079 8.307 6.75V6.746Z" fill="black"/>
</svg>
